# xmcd
#
# Track frame offsets:
#	150
#	16687
#	35569
#	51327
#	64507
#	80821
#	98125
#	114137
#	129766
#	145123
#	161469
#	176110
#	192665
#	208768
#	225128
#	243010
#	258603
#	277219
#	304198
#	325478
#
# Disc length: 4515 seconds
#
# Revision: 0
# Processed by: cddbd v1.5.2PL0 Copyright (c) Steve Scherf et al.
# Submitted via: audiograbber 1.83.01
#
DISCID=1511a114
DTITLE=Various Artist - Promo Only Country August 2013
DYEAR=2013
DGENRE=Country
TTITLE0=Dierks Bentley - Bourbon In Kentucky
TTITLE1=Kenny Chesney - When I See This Bar (Single Version)
TTITLE2=Toby Keith - Drinks After Work
TTITLE3=Thompson Square - Everything I Shouldn't Be Thinking About
TTITLE4=Miranda Lambert - All Kinds Of Kinds (Single Edit)
TTITLE5=Jason Aldean - Night Train
TTITLE6=Florida Georgia Line - Round Here
TTITLE7=Joe Diffie Feat. D-Thrash Of Jawga Boyz - Girls Ridin' Shotgun
TTITLE8=Andy Gibson - Best Thing
TTITLE9=Randy Travis With Joe Nichols - Tonight I'm Playin' Possum
TTITLE10=Sarah Darling - Little Umbrellas
TTITLE11=Aaron Lewis - Grandaddy's Gun
TTITLE12=Cassadee Pope - Wasting All These Tears
TTITLE13=Court Yard Hounds - Sunshine
TTITLE14=Chris Stapleton - What Are You Listening To
TTITLE15=Steve Richard - Keep On Rollin'
TTITLE16=Amy Speace - The Sea and The Shore
TTITLE17=Kenny Chesney - When I See This Bar (Album Version)
TTITLE18=Blake Shelton Feat. JasonAldean, Luke Bryan, Ronnie Dunn, Miranda Lamb
TTITLE18=ert, Brad Paisley, Reba McEnt - Boys 'Round Here (Celebrity Mix)
TTITLE19=Danielle Car - Turn You On
EXTD=
EXTT0=
EXTT1=
EXTT2=
EXTT3=
EXTT4=
EXTT5=
EXTT6=
EXTT7=
EXTT8=
EXTT9=
EXTT10=
EXTT11=
EXTT12=
EXTT13=
EXTT14=
EXTT15=
EXTT16=
EXTT17=
EXTT18=
EXTT19=
PLAYORDER=
